<svg xmlns="http://www.w3.org/2000/svg" viewBox="0 0 24 24"><g><path d="M21,3h-3V1h-2v6h2V5h3v15H3V5h2V3H3C1.896,3,1,3.895,1,5v15c0,1.104,0.896,2,2,2h18 c1.104,0,2-0.896,2-2V5C23,3.895,22.104,3,21,3z"></path><polygon points="8,5 15,5 15,3 8,3 8,1 6,1 6,7 8,7 "></polygon><rect x="5" y="9" width="4" height="4"></rect><rect x="10" y="9" width="4" height="4"></rect><rect x="15" y="9" width="4" height="4"></rect><rect x="5" y="14" width="4" height="4"></rect><rect x="10" y="14" width="4" height="4"></rect></g></svg>