<svg xmlns="http://www.w3.org/2000/svg" viewBox="0 0 24 24"><g><path d="M12,22c-4.962,0-9-4.037-9-9s4.038-9,9-9s9,4.037,9,9S16.962,22,12,22z M12,6c-3.86,0-7,3.14-7,7 c0,3.86,3.14,7,7,7s7-3.14,7-7C19,9.14,15.86,6,12,6z"></path><path d="M21.141,8.098C21.671,7.557,22,6.817,22,6c0-1.657-1.343-3-3-3c-0.817,0-1.558,0.329-2.099,0.86 L21.141,8.098z"></path><path d="M2.859,8.098C2.329,7.557,2,6.817,2,6c0-1.657,1.343-3,3-3c0.817,0,1.558,0.329,2.099,0.86 L2.859,8.098z"></path><path d="M14.293,16.707l-3-3C11.105,13.519,11,13.265,11,13V8h2v4.586l2.707,2.707L14.293,16.707z"></path></g></svg>