<svg xmlns="http://www.w3.org/2000/svg" viewBox="0 0 24 24"><g><path d="M14,22H2v-7.057l5.419,3.87C7.593,18.938,7.797,19,8,19s0.407-0.063,0.581-0.187l3.001-2.143 l-1.162-1.628L8,16.771L4.121,14H9v-2H2c-1.104,0-2,0.897-2,2v8c0,1.103,0.896,2,2,2h12c1.104,0,2-0.897,2-2v-6h-2V22z"></path><path d="M20.707,0.293c-0.391-0.391-1.023-0.391-1.414,0l-7,7c-0.127,0.128-0.219,0.288-0.263,0.465 l-1.001,4c-0.084,0.341,0.016,0.701,0.264,0.949s0.609,0.349,0.949,0.264l4-1.001c0.177-0.043,0.337-0.136,0.465-0.263l7-7 c0.391-0.391,0.391-1.023,0-1.414L20.707,0.293z M15.488,10.096l-2.115,0.53l0.53-2.114L17,5.414L18.586,7L15.488,10.096z M20,5.586L18.414,4L20,2.414L21.586,4L20,5.586z"></path></g></svg>