<svg xmlns="http://www.w3.org/2000/svg" viewBox="0 0 24 24"><g><polygon points="21.707,5.707 20.293,4.293 18,6.586 15.707,4.293 14.293,5.707 16.586,8 14.293,10.293 15.707,11.707 18,9.414 20.293,11.707 21.707,10.293 19.414,8 "></polygon><path d="M14,12H2c-1.104,0-2,0.897-2,2v8c0,1.103,0.896,2,2,2h12c1.104,0,2-0.897,2-2v-8 C16,12.897,15.104,12,14,12z M11.879,14L8,16.771L4.12,14H11.879z M2,22v-7.057l5.419,3.87C7.593,18.938,7.797,19,8,19 s0.407-0.063,0.581-0.187L14,14.943L14.002,22H2z"></path></g></svg>