<svg xmlns="http://www.w3.org/2000/svg" viewBox="0 0 24 24"><g><path d="M10.998,24h-10C0.6,24,0.24,23.764,0.082,23.4c-0.159-0.365-0.087-0.789,0.184-1.08l2.306-2.484 C1.539,18.392,0.998,16.735,0.998,15c0-4.963,4.486-9,10-9v2c-4.411,0-8,3.141-8,7c0,1.537,0.568,3,1.642,4.232 c0.336,0.386,0.327,0.963-0.021,1.338L3.291,22h7.707c4.411,0,8-3.14,8-7h2C20.998,19.963,16.512,24,10.998,24z"></path><polygon points="21.998,6 18.998,6 18.998,3 16.998,3 16.998,6 13.998,6 13.998,8 16.998,8 16.998,11 18.998,11 18.998,8 21.998,8 "></polygon></g></svg>