<svg xmlns="http://www.w3.org/2000/svg" viewBox="0 0 24 24"><g><path d="M10.998,22H3.291l1.328-1.43c0.348-0.375,0.357-0.952,0.021-1.338C3.566,18,2.998,16.537,2.998,15 c0-3.859,3.589-7,8-7c0.339,0,0.672,0.024,1,0.061V6.046C11.669,6.016,11.335,6,10.998,6c-5.514,0-10,4.037-10,9 c0,1.735,0.541,3.392,1.573,4.836L0.265,22.32c-0.271,0.291-0.343,0.715-0.184,1.08C0.24,23.764,0.6,24,0.998,24h10 c5.514,0,10-4.037,10-9h-2C18.998,18.86,15.409,22,10.998,22z"></path><path d="M22.998,4c0-2.205-1.794-4-4-4s-4,1.795-4,4c-0.552,0-1,0.447-1,1v7c0,0.553,0.448,1,1,1h8 c0.552,0,1-0.447,1-1V5C23.998,4.447,23.55,4,22.998,4z M18.998,2c1.103,0,2,0.896,2,2h-4C16.998,2.896,17.895,2,18.998,2z M21.998,11h-6V6h6V11z"></path><circle cx="18.998" cy="8" r="1"></circle></g></svg>