<svg xmlns="http://www.w3.org/2000/svg" viewBox="0 0 24 24"><g><path d="M20,22.001H3c-0.553,0-1-0.448-1-1v-18c0-0.552,0.447-1,1-1h17c0.553,0,1,0.448,1,1v18 C21,21.554,20.553,22.001,20,22.001z M4,20.001h15v-16H4V20.001z"></path><rect x="6" y="6.001" width="11" height="3"></rect><rect x="6" y="10.001" width="5" height="2"></rect><rect x="6" y="13.001" width="5" height="2"></rect><rect x="6" y="16.001" width="5" height="2"></rect><rect x="12" y="10.001" width="5" height="2"></rect><rect x="12" y="13.001" width="5" height="2"></rect><rect x="12" y="16.001" width="5" height="2"></rect></g></svg>