<svg xmlns="http://www.w3.org/2000/svg" viewBox="0 0 24 24"><g><path d="M23.998,23H15.63c-3.584,0-6.5-2.691-6.5-6s2.916-6,6.5-6s6.5,2.691,6.5,6 c0,0.822-0.185,1.638-0.539,2.389L23.998,23z M15.63,13c-2.481,0-4.5,1.795-4.5,4s2.019,4,4.5,4h4.632l-1.024-1.537l0.338-0.546 c0.368-0.595,0.554-1.239,0.554-1.917C20.13,14.795,18.111,13,15.63,13z"></path><path d="M7.13,18H0.716l3.775-3.774C3.598,12.959,3.13,11.515,3.13,10c0-4.411,4.038-8,9-8 c4.468,0,8.3,2.961,8.914,6.889l-1.976,0.309C18.605,6.234,15.622,4,12.13,4c-3.86,0-7,2.691-7,6c0,1.32,0.5,2.578,1.444,3.636 l0.63,0.705L5.544,16H7.13V18z"></path></g></svg>