<svg xmlns="http://www.w3.org/2000/svg" viewBox="0 0 24 24"><g><path d="M22.398,11.082C17.227,8.838,13.463,7.16,10.706,5.93c-5.377-2.397-6.823-3.042-7.83-3.042 c-0.864,0-1.289,0.524-1.429,0.695C0.918,4.235,0.854,5.156,1.285,5.873L4.961,12l-3.675,6.125 c-0.432,0.718-0.367,1.638,0.162,2.29c0.14,0.173,0.565,0.697,1.43,0.697h0c1.006,0,2.446-0.643,7.799-3.03 c2.76-1.231,6.532-2.914,11.722-5.165C22.764,12.757,23,12.397,23,11.999S22.764,11.24,22.398,11.082z M3.083,4.914 c0.8,0.164,2.929,1.114,6.808,2.844c1.91,0.852,4.312,1.922,7.317,3.241H6.693h0L3.083,4.914z M9.862,16.255 c-3.942,1.759-6.069,2.707-6.827,2.84l3.658-6.097h10.516C14.188,14.326,11.776,15.401,9.862,16.255z"></path></g></svg>