<svg xmlns="http://www.w3.org/2000/svg" viewBox="0 0 24 24"><g><path d="M11.998,21h-10C1.6,21,1.24,20.764,1.082,20.4c-0.159-0.365-0.087-0.789,0.184-1.08l2.306-2.484 C2.539,15.392,1.998,13.735,1.998,12c0-4.963,4.486-9,10-9s10,4.037,10,9S17.512,21,11.998,21z M4.291,19h7.707 c4.411,0,8-3.14,8-7c0-3.859-3.589-7-8-7s-8,3.141-8,7c0,1.537,0.568,3,1.642,4.232c0.336,0.386,0.327,0.963-0.021,1.338 L4.291,19z"></path><path d="M7.42,13c0.772,1.764,2.528,3,4.578,3s3.806-1.236,4.578-3H7.42z"></path><circle cx="8.998" cy="9.25" r="1.25"></circle><circle cx="14.998" cy="9.25" r="1.25"></circle></g></svg>