<svg xmlns="http://www.w3.org/2000/svg" viewBox="0 0 24 24"><g><path d="M14,22c-0.263,0-0.518-0.104-0.707-0.293l-11-11C2.105,10.52,2,10.266,2,10V3c0-0.553,0.447-1,1-1 h7c0.266,0,0.52,0.105,0.707,0.293l11,11c0.238,0.238,0.34,0.578,0.272,0.908c-0.067,0.329-0.296,0.603-0.608,0.728L16.77,16.77 l-1.841,4.602c-0.125,0.313-0.398,0.541-0.728,0.608C14.135,21.993,14.066,22,14,22z M4,9.586l9.635,9.635l1.437-3.592 c0.103-0.254,0.304-0.455,0.558-0.558l3.592-1.437L9.586,4H4V9.586z"></path><circle cx="7" cy="7" r="2"></circle></g></svg>