<svg xmlns="http://www.w3.org/2000/svg" viewBox="0 0 24 24"><g><path d="M12,9.25c-2.619,0-4.75,2.131-4.75,4.75s2.131,4.75,4.75,4.75s4.75-2.131,4.75-4.75 S14.619,9.25,12,9.25z M12,10.75c0.624,0,1.202,0.186,1.698,0.492l-4.456,4.456C8.936,15.202,8.75,14.624,8.75,14 C8.75,12.208,10.208,10.75,12,10.75z M12,17.25c-0.624,0-1.202-0.186-1.698-0.492l4.456-4.456 c0.306,0.496,0.492,1.073,0.492,1.697C15.25,15.792,13.792,17.25,12,17.25z"></path><path d="M16.414,1H5C3.897,1,3,1.898,3,3v18c0,1.103,0.897,2,2,2h14c1.103,0,2-0.897,2-2V5.586L16.414,1z M5,21V3h10v4h4l0.001,14H5z"></path></g></svg>